<?xml version="1.0" standalone="no"?>
<!DOCTYPE svg PUBLIC "-//W3C//DTD SVG 20010904//EN"
 "http://www.w3.org/TR/2001/REC-SVG-20010904/DTD/svg10.dtd">
<svg version="1.0" xmlns="http://www.w3.org/2000/svg"
 width="700.000000pt" height="700.000000pt" viewBox="0 0 700.000000 700.000000"
 preserveAspectRatio="xMidYMid meet">
<metadata>
Created by potrace 1.14, written by Peter Selinger 2001-2017
</metadata>
<g transform="translate(0.000000,700.000000) scale(0.100000,-0.100000)"
fill="#000000" stroke="none">
<path d="M0 3500 l0 -3500 3500 0 3500 0 0 3500 0 3500 -3500 0 -3500 0 0
-3500z m5398 1881 c47 -24 77 -56 97 -103 13 -33 15 -230 15 -1781 l0 -1743
-26 -52 c-19 -39 -38 -59 -72 -80 l-47 -27 -1860 0 -1860 0 -40 21 c-22 11
-53 40 -70 63 l-30 43 -3 1764 c-2 1722 -2 1765 17 1802 23 43 66 87 101 101
16 6 677 10 1883 10 1807 1 1859 0 1895 -18z"/>
<path d="M1903 5053 c-49 -10 -53 -29 -53 -291 l0 -243 25 -24 24 -25 814 0
c945 0 850 -13 860 116 12 150 20 401 13 427 -4 16 -17 29 -37 36 -22 8 -272
11 -828 10 -438 -1 -806 -4 -818 -6z"/>
<path d="M3985 5050 c-12 -4 -26 -15 -33 -23 -18 -22 -90 -1257 -75 -1289 9
-19 123 -69 606 -266 327 -133 601 -242 609 -242 7 0 24 7 36 16 l22 15 0 877
c0 482 -4 882 -8 889 -4 6 -20 17 -35 22 -34 13 -1091 14 -1122 1z"/>
<path d="M2114 4105 c-4 -8 -4 -21 -1 -27 2 -7 301 -134 664 -281 602 -245
662 -267 686 -256 14 6 29 19 32 28 3 8 13 125 21 259 14 221 14 246 -1 268
l-15 24 -691 0 c-604 0 -690 -2 -695 -15z"/>
<path d="M1893 3760 c-12 -5 -26 -18 -32 -29 -8 -13 -11 -290 -11 -879 0 -854
0 -859 21 -886 l20 -26 570 0 c556 0 569 0 589 20 11 11 20 26 20 33 0 6 16
290 36 630 31 544 34 621 21 640 -10 16 -177 88 -598 259 -321 131 -591 240
-599 242 -8 3 -25 1 -37 -4z"/>
<path d="M3525 3440 c-16 -18 -21 -52 -31 -223 -18 -286 -18 -303 6 -327 20
-20 33 -20 694 -20 371 0 681 3 690 6 19 7 21 38 4 51 -24 19 -1299 533 -1322
533 -12 0 -31 -9 -41 -20z"/>
<path d="M3476 2505 c-20 -20 -23 -44 -36 -260 -14 -248 -14 -261 10 -285 20
-20 33 -20 838 -20 724 0 820 2 840 16 22 15 22 18 22 274 0 222 -2 261 -16
274 -14 14 -103 16 -829 16 -717 0 -815 -2 -829 -15z"/>
</g>
</svg>
