<svg width="150" height="100" viewBox="0 0 150 100" fill="none" xmlns="http://www.w3.org/2000/svg">
  <path d="M65.6138 36.6889H71.1348V58.774H76.6563V31.1675H71.1348C68.0983 31.1675 65.6138 33.6521 65.6138 36.6889Z"
    fill="white" />
  <path d="M82.1773 58.774H87.6989V47.7314C87.6989 44.6947 85.2144 42.2101 82.1773 42.2101V58.774Z" fill="white" />
  <path
    d="M93.2199 42.2101V58.774H98.7414V47.7314H104.262V53.2527C104.262 56.2895 106.747 58.774 109.784 58.774V47.7314C109.784 44.6947 107.299 42.2101 104.262 42.2101H93.2199Z"
    fill="white" />
  <path
    d="M142.912 42.2101H137.391V36.6889C137.391 33.6521 134.906 31.1675 131.869 31.1675V53.2527H120.827V47.7314H126.348V42.2101H120.827C117.79 42.2101 115.305 44.6947 115.305 47.7314V53.2527C115.305 56.2895 117.79 58.774 120.827 58.774H137.391V47.7314H142.912V53.2527C142.912 56.2895 145.396 58.774 148.433 58.774V47.7314C148.433 44.6947 145.949 42.2101 142.912 42.2101Z"
    fill="white" />
  <path d="M82.1773 36.6889H87.6989C87.6989 33.6521 85.2144 31.1675 82.1773 31.1675V36.6889Z" fill="white" />
  <path fill-rule="evenodd" clip-rule="evenodd"
    d="M74.2215 64.295V67.9083H73.7155L71.7282 65.405V67.9083H71.1348V64.295H71.6409L73.6282 66.8089V64.295H74.2215ZM85.4525 67.9083H83.3105V64.295H85.4011V64.889H83.9453V65.7868H85.2464V66.3807H83.9453V67.3149H85.4525V67.9083ZM94.542 64.889H95.7138V67.9083H96.3486V64.889H97.5204V64.295H94.542V64.889ZM111.033 64.295H111.642L110.609 67.9083H110.016L109.144 65.2967L108.287 67.9083H107.688L106.609 64.295H107.322L108.049 66.8707L108.855 64.295H109.485L110.31 66.8763L111.033 64.295ZM121.257 64.8321C120.907 65.1901 120.731 65.6321 120.731 66.1586C120.731 66.7127 120.908 67.1619 121.263 67.5061C121.617 67.8497 122.066 68.0221 122.61 68.0221C123.15 68.0221 123.599 67.8464 123.957 67.4956C124.315 67.1448 124.494 66.6989 124.494 66.1586C124.494 65.6078 124.315 65.1591 123.957 64.8116C123.603 64.4674 123.154 64.295 122.61 64.295C122.066 64.295 121.615 64.474 121.257 64.8321ZM121.748 67.0669C121.517 66.826 121.402 66.5232 121.402 66.1586C121.402 65.7868 121.515 65.4823 121.743 65.2448C121.973 65.0078 122.262 64.889 122.61 64.889C122.951 64.889 123.238 65.0078 123.472 65.2448C123.706 65.4857 123.823 65.7906 123.823 66.1586C123.823 66.5232 123.713 66.826 123.493 67.0669C123.276 67.3078 122.982 67.4282 122.61 67.4282C122.266 67.4282 121.978 67.3078 121.748 67.0669ZM134.218 66.5663V67.9188H133.583V64.3055C133.762 64.3055 133.956 64.3039 134.166 64.3006C134.376 64.2967 134.549 64.295 134.682 64.295C135.556 64.295 135.994 64.6669 135.994 65.41C135.994 65.6857 135.923 65.9127 135.782 66.0917C135.641 66.2636 135.479 66.3807 135.297 66.4426L136.427 67.9188H135.658L134.662 66.5663H134.218ZM134.651 64.889C134.634 64.889 134.607 64.8906 134.569 64.8939C134.531 64.8939 134.478 64.8956 134.409 64.8989H134.218V65.9729H134.631C134.834 65.9729 134.999 65.9227 135.127 65.8232C135.257 65.7232 135.323 65.5873 135.323 65.4155C135.323 65.0641 135.099 64.889 134.651 64.889ZM145.517 67.9083H146.151V66.0448L147.628 67.9083H148.433L146.853 65.9779L148.34 64.295H147.576L146.151 66.0089V64.295H145.517V67.9083Z"
    fill="#2F7AEA" />
  <path
    d="M15.1559 52.3069L16.6053 41.3915L4.01416 32.6502L15.5183 36.5453L18.2358 32.3785L28.1546 26.2188L50.0306 38.2664L51.1629 56.6547L41.4251 70.1972L33.7256 71.3746L37.7112 64.0828V57.0624L34.8125 51.5822L31.8686 49.6346L27.3394 54.2997V59.2364L23.8067 62.5431L19.3228 63.0862L17.33 64.2188L14.069 63.1768L12.7102 58.2856L15.1559 54.8432V52.3069Z"
    fill="white" />
  <path
    d="M35.2662 32.5596C32.8657 32.0613 30.2388 32.1972 30.2388 32.1972C30.2388 32.1972 29.3782 36.1829 24.0338 37.2246C24.0791 37.2246 31.0993 39.6251 35.2662 32.5596Z"
    fill="#94A6C3" />
  <path
    d="M37.4402 68.7022C40.3388 66.4382 42.5128 63.3127 43.5092 59.7801C43.5545 59.6442 43.9622 59.4177 44.2339 59.2365C44.6869 58.9647 45.1397 58.7382 45.2303 58.3757C45.4115 57.3343 45.5021 56.247 45.5021 55.1602C45.5021 54.7526 45.0945 54.345 44.6869 53.9374C44.3698 53.6656 44.0528 53.3485 44.0528 53.1221C43.5998 49.0005 41.6976 45.1507 38.663 42.3427L38.346 42.6597C41.2899 45.4225 43.1922 49.1817 43.5998 53.1674C43.6451 53.5297 44.0075 53.8921 44.3698 54.2544C44.6869 54.5262 45.0492 54.9338 45.0492 55.1149C45.0492 56.1564 44.9586 57.1984 44.7774 58.2398C44.7321 58.421 44.3245 58.6022 44.0075 58.7835C43.5545 59.01 43.1469 59.2365 43.0563 59.5989C41.9693 63.4487 39.4783 66.8 36.172 68.9741C36.7608 67.7061 38.6177 63.5846 39.6141 61.5011L39.433 54.7979L33.6809 49.227L30.4199 49.6799L26.8419 55.4774C26.8419 55.4774 28.5177 57.6061 26.1625 60.0973C23.8526 62.5426 22.0409 63.0862 22.0409 63.0862L20.3651 62.1807C20.8634 61.5464 21.8598 60.5951 22.6297 59.9614C23.9432 58.8741 25.2566 58.7835 25.2566 57.6061C25.3019 55.1602 22.675 55.8398 22.675 55.8398L21.7239 56.7453L21.3162 60.0973L19.3234 62.5879L19.097 62.5426L15.836 61.8183C15.836 61.8183 17.8288 60.7763 18.1459 59.5989C18.4629 58.4663 17.5118 54.7073 17.4665 54.4809C17.5118 54.5262 18.4176 55.2962 18.8252 56.5641C19.5499 54.5714 20.501 52.6692 20.7728 52.488C21.0445 52.3068 24.7132 50.3593 24.7132 50.3593L23.4903 53.575L24.3961 53.0768L26.5701 47.7324C26.5701 47.7324 28.6988 46.6907 30.284 46.6907C33.1374 46.6454 37.3496 43.1579 35.4473 36.9077C35.9908 37.1341 45.4115 41.8444 47.042 51.084C48.2649 58.1945 44.2339 64.8525 37.4402 68.7022Z"
    fill="#94A6C3" />
  <path
    d="M26.6604 33.5561C27.7021 32.3332 27.2945 30.5215 27.2945 30.5215L24.26 35.0054C24.2146 35.0054 25.3469 35.0507 26.6604 33.5561Z"
    fill="#1B314F" />
  <path
    d="M16.4697 58.0592L16.832 56.2476C16.832 56.2476 15.3374 58.8741 15.2016 59.2365C15.0657 59.6442 15.2922 60.3691 15.8809 60.3238C16.4697 60.2785 17.1944 59.4177 17.1944 58.784C17.1944 57.9686 16.4697 58.0592 16.4697 58.0592Z"
    fill="#1B314F" />
  <path
    d="M43.373 29.2534C43.373 29.2534 45.6376 29.344 47.9928 29.6157C42.6936 25.4489 37.6662 24.226 33.59 24.226C27.9738 24.226 24.1693 26.5359 23.9429 26.6717L25.7092 23.8637C25.7092 23.8637 18.6437 23.1843 16.1526 30.6574C15.5186 29.0722 14.9298 26.7624 14.9298 26.7624C14.9298 26.7624 11.2612 29.978 12.9823 35.3225C8.77011 33.7826 2.74629 31.6538 2.51984 31.6085C2.20279 31.5633 2.11221 31.6991 2.11221 31.6991C2.11221 31.6991 2.02163 31.835 2.29338 32.0615C2.79159 32.4691 12.3029 39.4893 14.3863 40.8481C13.9334 42.4786 13.9334 43.2485 14.3863 44.0185C15.0204 45.0602 15.0656 45.6037 14.9751 46.3737C14.8845 47.1436 14.0692 53.8015 13.8881 54.6168C13.7069 55.432 11.8046 58.3309 11.8952 59.1911C11.9858 60.0519 13.1634 63.7204 14.2051 64.1282C14.9751 64.4 16.8773 64.9884 18.1455 64.9884C18.5984 64.9884 19.006 64.8978 19.1872 64.7171C19.9572 64.0375 20.1836 63.9016 20.7271 63.9016C20.7724 63.9016 20.8177 63.9016 20.863 63.9016C21.0894 63.9016 21.3612 63.9469 21.6783 63.9469C22.4029 63.9469 23.354 63.811 24.0334 63.1768C25.0298 62.1806 26.7509 60.8215 27.2944 60.1878C27.9738 59.327 28.3361 58.1497 28.155 56.9718C28.0191 55.8851 28.6079 54.9338 29.2873 53.9827C30.1478 52.8504 31.733 50.8123 31.733 50.8123C34.8582 53.1674 36.8057 56.7453 36.8057 60.7309C36.8057 67.7967 30.646 73.5033 23.037 73.5033C21.8594 73.5033 20.7271 73.3674 19.5949 73.0956C23.0823 74.3188 26.0263 74.7265 28.4267 74.7265C33.5447 74.7265 36.2622 72.8696 36.2622 72.8696C36.2622 72.8696 35.3111 74.0922 33.7712 75.4961C33.8165 75.4961 33.8165 75.4961 33.8165 75.4961C42.286 74.3188 46.4076 67.3436 46.4076 67.3436C46.4076 67.3436 46.0905 69.6083 45.6829 71.148C56.9608 62.679 55.0583 52.0805 55.013 51.7181C55.1036 51.854 56.2359 53.2127 56.8249 53.9374C58.6365 35.2772 43.373 29.2534 43.373 29.2534ZM26.0263 59.0552C25.8451 59.2817 25.0751 59.9613 24.5317 60.4596C23.9881 60.9574 23.3993 61.4558 22.9464 61.9088C22.7652 62.09 22.4029 62.1806 21.8594 62.1806C21.6783 62.1806 21.4971 62.1806 21.3612 62.1806C21.2707 62.1806 21.1801 62.1806 21.0894 62.1806C20.9989 62.1806 20.9536 62.1806 20.9083 62.1806C20.7724 62.1806 20.6366 62.1806 20.5007 62.1806C21.1801 61.2746 23.1729 59.1911 23.8523 58.7381C24.6675 58.195 25.0751 57.6514 24.577 56.7C24.0787 55.7491 22.7652 55.9757 22.7652 55.9757C22.7652 55.9757 23.5352 55.6585 24.2146 55.6585C23.354 55.432 22.2671 55.6585 21.7688 56.1569C21.2254 56.6547 21.3159 58.4215 21.0894 59.5536C20.863 60.7309 20.093 61.3199 18.9155 62.4072C18.2814 62.9956 17.8284 63.1768 17.4661 63.1768C16.6962 63.0409 15.7903 62.8143 15.1562 62.5884C14.7033 61.9994 14.024 60.0519 13.8428 59.2364C13.9787 58.7834 14.5222 57.8326 14.7939 57.2889C15.3374 56.2475 15.6545 55.6585 15.745 55.115C15.9262 54.3451 16.515 49.5894 16.7414 47.5966C17.3303 48.3666 18.1455 49.6347 17.9643 50.4499C19.2778 48.593 18.3267 46.7813 17.8738 46.0567C17.4661 45.332 16.9226 43.8826 17.3755 42.3427C17.8284 40.8028 19.4589 36.5454 19.4589 36.5454C19.4589 36.5454 20.0025 37.4965 20.7724 37.3153C21.5424 37.1342 27.7473 27.8041 27.7473 27.8041C27.7473 27.8041 29.4231 31.4727 27.6568 34.1449C25.8451 36.8171 24.0787 37.3153 24.0787 37.3153C24.0787 37.3153 26.5698 37.7683 28.8797 36.0925C29.8308 38.3117 30.7366 40.6216 30.7819 40.9386C30.646 41.2557 28.8344 45.6037 28.6532 45.8755C28.5626 45.9661 27.9285 46.1472 27.4756 46.2378C26.7056 46.4643 26.2527 46.6001 26.0715 46.736C25.7545 47.0078 24.3052 50.9935 23.6258 52.941C22.8105 53.1674 21.9953 53.6204 21.4065 54.5262C21.7235 54.2998 22.7199 54.1638 23.4446 54.0733C24.0787 54.028 26.0263 55.0697 26.5245 57.0171C26.5245 57.0624 26.5245 57.0624 26.5245 57.1077C26.6151 57.8326 26.3886 58.5121 26.0263 59.0552ZM21.7688 59.5989C22.1765 59.0099 22.1312 58.0138 22.1765 57.6967C22.2218 57.3795 22.3123 56.7906 22.6747 56.7C23.037 56.6094 23.8976 56.7453 23.8976 57.3795C23.8976 57.9685 23.2635 58.1044 22.8105 58.5121C22.4935 58.8287 21.8594 59.5083 21.7688 59.5989ZM39.8403 50.9482C40.2932 48.6383 40.3384 46.6454 40.2026 45.0149C41.9689 47.3701 43.056 50.2235 43.373 53.1674C43.4183 53.5298 43.7807 53.8921 44.143 54.2544C44.46 54.5262 44.8224 54.8885 44.8224 55.115C44.8224 56.1569 44.7318 57.1983 44.5506 58.2403C44.5053 58.3762 44.0977 58.6027 43.7807 58.7834C43.3277 59.0099 42.9201 59.2364 42.8295 59.5989C41.8331 63.0862 39.7044 66.1663 36.851 68.3403C41.0631 63.9469 43.1013 56.7 39.8403 50.9482ZM36.9869 68.748C39.9308 66.4834 42.1954 63.3127 43.1919 59.7348C43.2371 59.5989 43.6447 59.3724 43.9165 59.1911C44.3694 58.9646 44.8224 58.6928 44.9129 58.3309C45.0941 57.2889 45.1847 56.2022 45.1847 55.115C45.1847 54.7074 44.7771 54.2998 44.3694 53.8921C44.143 53.6204 43.7807 53.3033 43.7807 53.0769C43.4183 49.7706 42.1049 46.6454 40.0667 44.0638C39.1609 38.6288 35.5376 36.953 35.447 36.9077C35.5376 37.0436 37.8927 40.4405 36.2622 44.4262C34.5864 48.4571 30.2837 47.823 29.9214 47.8683C29.559 47.8683 28.155 49.68 26.3886 53.0316C26.1622 52.941 25.211 52.7145 24.124 52.8957C24.9393 50.6311 26.1622 47.4154 26.3886 47.1436C26.4792 47.0531 27.1586 46.8719 27.6115 46.736C28.472 46.5096 28.8797 46.3737 29.0155 46.1925C29.1061 46.0567 29.559 45.0149 30.0119 43.9279C30.4196 43.9279 31.4613 43.8373 31.5519 43.7921C31.6424 43.7015 32.503 41.4822 32.503 41.2104C32.503 40.984 30.7366 36.5906 30.0572 34.9148C30.3743 34.5525 30.6913 34.0996 31.0083 33.6014C40.2932 34.5978 47.5399 42.4786 47.5399 52.0352C47.5399 59.3724 43.2371 65.7585 36.9869 68.748Z"
    fill="#1B314F" />
  <path
    d="M24.9393 44.2903C25.7998 43.2939 25.3469 41.4369 23.7617 41.1199C24.1693 40.1687 24.7581 38.2665 24.7581 38.2665C24.7581 38.2665 20.1383 45.5132 19.7307 45.649C19.3231 45.7849 18.9155 44.1997 18.9155 44.1997C18.0549 47.506 20.3648 47.9589 20.6366 46.9172C21.9048 46.6002 24.0787 45.2414 24.9393 44.2903Z"
    fill="#1B314F" />
  <path
    d="M20.9988 46.0568L23.354 42.0259C23.354 42.0259 24.7127 42.7052 24.0333 43.7922C23.1728 45.0604 20.9988 46.0568 20.9988 46.0568Z"
    fill="#FFD923" />
  <path
    d="M50.1215 64.7171C49.4422 65.6227 48.6722 66.5741 47.7663 67.4796C53.609 56.2475 48.0381 45.9661 47.8117 45.5585C48.2193 45.9661 48.6269 46.419 48.9892 46.8266C53.4731 51.8087 54.0166 59.2818 50.1215 64.7171Z"
    fill="#D82122" />
  <path
    d="M55.5563 50.2688C53.5184 44.7885 50.6197 40.1234 44.2336 35.9113C38.0739 31.835 31.4613 32.1521 31.099 32.1974C31.0537 32.1974 31.0084 32.1974 31.0084 32.1974C31.2349 32.1068 31.4613 32.0615 31.6878 32.0162C33.0918 31.5633 34.9035 31.201 36.7152 30.9745C41.5161 30.2951 46.3623 31.9256 49.6686 35.4131C49.7139 35.4584 49.7139 35.4584 49.7592 35.5037C53.5184 39.4893 55.4657 44.4714 55.5563 50.2688Z"
    fill="#D82122" />
  <path
    d="M42.7843 27.8495C36.0358 26.5813 31.6878 27.2154 28.5626 28.393C28.4721 28.0307 28.155 27.306 27.8833 26.7172C26.9322 27.8495 25.9357 29.2082 25.3017 30.0688C23.5806 31.2464 22.8559 32.3787 22.8559 32.3787C23.8523 28.9818 26.751 26.4455 30.2838 25.8114C31.2802 25.6302 32.3672 25.5396 33.5448 25.5396C36.6699 25.5849 39.795 26.3549 42.7843 27.8495Z"
    fill="#D82122" />
  <path
    d="M17.8285 36.5456C12.5294 36.3644 14.2957 30.2047 14.3864 29.8423C14.3864 29.8877 14.7487 34.6886 17.8285 36.5456Z"
    fill="#D82122" />
  <path
    d="M23.0371 25.449C18.9608 27.8947 19.7761 33.7374 19.7761 33.7374C15.881 27.8042 22.7201 25.5849 23.0371 25.449Z"
    fill="#D82122" />
  <path
    d="M16.334 38.176C16.6057 38.4025 16.8775 38.8101 16.5605 39.3989C16.3793 39.7159 16.1076 39.6706 15.6999 39.4895C15.1564 39.2177 11.8954 37.3154 8.95143 35.3679C12.303 36.5455 15.6999 37.8137 16.2434 38.0854C16.2434 38.0854 16.2887 38.1307 16.334 38.176Z"
    fill="white" />
</svg>