<svg width="124" height="33" viewBox="0 0 124 33" fill="none" xmlns="http://www.w3.org/2000/svg">
  <path
    d="M40.178 28V5.59771H49.2323C49.4501 5.59771 49.7197 5.60809 50.0412 5.62883C50.3627 5.6392 50.6687 5.67031 50.9591 5.72217C52.2037 5.91923 53.2408 6.34446 54.0705 6.99786C54.9106 7.65126 55.5381 8.47579 55.9529 9.47144C56.3678 10.4671 56.5752 11.5665 56.5752 12.7696C56.5752 13.983 56.3678 15.0876 55.9529 16.0832C55.5381 17.0789 54.9106 17.9034 54.0705 18.5568C53.2408 19.2102 52.2037 19.6354 50.9591 19.8325C50.6687 19.874 50.3576 19.9051 50.0257 19.9258C49.7042 19.9466 49.4397 19.957 49.2323 19.957H43.4294V28H40.178ZM43.4294 16.8766H49.1078C49.3152 16.8766 49.5434 16.8663 49.7923 16.8455C50.0516 16.8248 50.2953 16.7885 50.5235 16.7366C51.1873 16.5811 51.7214 16.2958 52.1259 15.881C52.5304 15.4558 52.8208 14.9683 52.9971 14.4186C53.1734 13.8689 53.2616 13.3192 53.2616 12.7696C53.2616 12.2199 53.1734 11.6754 52.9971 11.1361C52.8208 10.5864 52.5304 10.1041 52.1259 9.68924C51.7214 9.26401 51.1873 8.97361 50.5235 8.81804C50.2953 8.75581 50.0516 8.71433 49.7923 8.69359C49.5434 8.67284 49.3152 8.66247 49.1078 8.66247H43.4294V16.8766ZM65.9909 28.4667C64.3211 28.4667 62.8536 28.1037 61.5883 27.3777C60.3333 26.6413 59.3532 25.6198 58.648 24.313C57.9531 22.9958 57.6056 21.4712 57.6056 19.7392C57.6056 17.9034 57.9479 16.3114 58.6324 14.9631C59.3273 13.6148 60.2918 12.5725 61.526 11.8361C62.7602 11.0998 64.1967 10.7316 65.8354 10.7316C67.5467 10.7316 69.0038 11.1309 70.2069 11.9295C71.41 12.7177 72.3071 13.843 72.8983 15.3054C73.4999 16.7677 73.7384 18.505 73.6139 20.517H70.3625V19.3347C70.3418 17.3848 69.9684 15.9432 69.2424 15.0098C68.5268 14.0764 67.4326 13.6096 65.9598 13.6096C64.3315 13.6096 63.1077 14.123 62.2883 15.1498C61.469 16.1766 61.0593 17.6597 61.0593 19.5991C61.0593 21.4453 61.469 22.8765 62.2883 23.8929C63.1077 24.8989 64.29 25.402 65.8354 25.402C66.8518 25.402 67.7282 25.1738 68.4645 24.7174C69.2113 24.2507 69.7921 23.587 70.2069 22.7261L73.3961 23.7373C72.7427 25.2412 71.7523 26.408 70.4247 27.2377C69.0972 28.057 67.6193 28.4667 65.9909 28.4667ZM60.0014 20.517V17.9812H71.996V20.517H60.0014ZM80.612 28.4667C79.3674 28.4667 78.3251 28.2385 77.485 27.7822C76.6449 27.3155 76.0071 26.7036 75.5715 25.9465C75.1462 25.179 74.9336 24.3389 74.9336 23.4262C74.9336 22.5757 75.084 21.829 75.3848 21.186C75.6856 20.5429 76.1315 19.9984 76.7227 19.5525C77.3139 19.0961 78.0399 18.7279 78.9007 18.4479C79.6474 18.2301 80.4927 18.0382 81.4365 17.8723C82.3803 17.7064 83.3708 17.5508 84.4079 17.4056C85.4554 17.2604 86.4926 17.1152 87.5194 16.97L86.337 17.6234C86.3578 16.3062 86.0777 15.3313 85.4969 14.6986C84.9265 14.0556 83.9412 13.7341 82.5411 13.7341C81.6595 13.7341 80.8505 13.9415 80.1142 14.3564C79.3778 14.7609 78.8644 15.435 78.574 16.3788L75.5404 15.4454C75.9552 14.0038 76.7434 12.8577 77.905 12.0073C79.077 11.1568 80.6327 10.7316 82.5722 10.7316C84.076 10.7316 85.3828 10.9909 86.4926 11.5094C87.6127 12.0176 88.432 12.8266 88.9506 13.9363C89.2203 14.486 89.3862 15.0668 89.4484 15.6787C89.5107 16.2907 89.5418 16.9492 89.5418 17.6545V28H86.6637V24.1574L87.2238 24.6552C86.5289 25.9413 85.6421 26.9006 84.5635 27.5333C83.4952 28.1556 82.1781 28.4667 80.612 28.4667ZM81.1876 25.8064C82.1107 25.8064 82.9041 25.6457 83.5678 25.3242C84.2316 24.9923 84.7657 24.5722 85.1702 24.064C85.5747 23.5558 85.8392 23.0269 85.9636 22.4772C86.14 21.9794 86.2385 21.4193 86.2592 20.797C86.2903 20.1748 86.3059 19.6769 86.3059 19.3036L87.3638 19.6925C86.337 19.8481 85.4036 19.9881 84.5635 20.1125C83.7234 20.237 82.9611 20.3614 82.2766 20.4859C81.6025 20.6 81.0009 20.74 80.472 20.9059C80.026 21.0615 79.6267 21.2482 79.2741 21.466C78.9318 21.6838 78.657 21.9483 78.4495 22.2594C78.2525 22.5706 78.154 22.9491 78.154 23.3951C78.154 23.8307 78.2629 24.2352 78.4807 24.6085C78.6985 24.9715 79.0303 25.2619 79.4763 25.4797C79.9223 25.6975 80.4927 25.8064 81.1876 25.8064ZM91.0924 28V27.4866L100.629 14.1075H91.9636V11.1983H105.794V11.7272L96.2729 25.0908H105.327V28H91.0924ZM114.481 28.4667C112.811 28.4667 111.343 28.1037 110.078 27.3777C108.823 26.6413 107.843 25.6198 107.138 24.313C106.443 22.9958 106.095 21.4712 106.095 19.7392C106.095 17.9034 106.438 16.3114 107.122 14.9631C107.817 13.6148 108.782 12.5725 110.016 11.8361C111.25 11.0998 112.686 10.7316 114.325 10.7316C116.036 10.7316 117.494 11.1309 118.697 11.9295C119.9 12.7177 120.797 13.843 121.388 15.3054C121.99 16.7677 122.228 18.505 122.104 20.517H118.852V19.3347C118.831 17.3848 118.458 15.9432 117.732 15.0098C117.016 14.0764 115.922 13.6096 114.449 13.6096C112.821 13.6096 111.597 14.123 110.778 15.1498C109.959 16.1766 109.549 17.6597 109.549 19.5991C109.549 21.4453 109.959 22.8765 110.778 23.8929C111.597 24.8989 112.78 25.402 114.325 25.402C115.341 25.402 116.218 25.1738 116.954 24.7174C117.701 24.2507 118.282 23.587 118.697 22.7261L121.886 23.7373C121.232 25.2412 120.242 26.408 118.914 27.2377C117.587 28.057 116.109 28.4667 114.481 28.4667ZM108.491 20.517V17.9812H120.486V20.517H108.491Z"
    fill="#121212" />
  <path fill-rule="evenodd" clip-rule="evenodd"
    d="M12.7675 18.3025C12.9805 18.3968 13.1131 18.6128 13.1007 18.8454L12.5363 29.46C12.5205 29.7579 12.2743 29.9913 11.976 29.9913H3.3836C3.07374 29.9913 2.82255 29.7401 2.82255 29.4302V14.7647C2.82255 14.3591 3.23966 14.0875 3.61059 14.2516L12.7675 18.3025ZM5.10807 11.0698C4.80482 11.0698 4.71725 11.4841 4.99458 11.6068L15.205 16.1238C15.5642 16.2827 15.9713 16.0328 15.9922 15.6405L16.204 11.6606C16.2211 11.3395 15.9653 11.0698 15.6437 11.0698H5.10807ZM0.00171531 9.39729C0.00171531 9.39777 0.00133133 9.39815 0.000857656 9.39815C0.000383985 9.39815 0 9.39853 0 9.39901V31.3168C0 32.2464 0.75358 33 1.68317 33H30.3143C31.2438 33 31.9974 32.2464 31.9974 31.3168V23.6031C31.9974 23.6024 31.998 23.6018 31.9987 23.6018C31.9994 23.6018 32 23.6013 32 23.6006V1.68317C32 0.753578 31.2464 0 30.3168 0H1.68488C0.755294 0 0.00171531 0.75358 0.00171531 1.68317V9.39729ZM16.3563 21.9302C16.0347 21.9302 15.7789 21.6605 15.796 21.3394L16.0078 17.3595C16.0287 16.9672 16.4358 16.7173 16.795 16.8762L27.0062 21.3932C27.2835 21.5158 27.196 21.9302 26.8927 21.9302H16.3563ZM29.174 25.4991C29.174 25.1892 28.9228 24.938 28.613 24.938H16.1676C15.8698 24.938 15.6239 25.1707 15.6074 25.468L15.3892 29.3991C15.3713 29.7207 15.6273 29.9913 15.9494 29.9913H28.613C28.9228 29.9913 29.174 29.7401 29.174 29.4302V25.4991ZM20.0231 3.00781C19.7248 3.00781 19.4787 3.24121 19.4628 3.53907L18.8984 14.1537C18.886 14.3863 19.0187 14.6023 19.2317 14.6966L28.3886 18.7475C28.7595 18.9115 29.1766 18.64 29.1766 18.2344V3.56887C29.1766 3.259 28.9254 3.00781 28.6155 3.00781H20.0231ZM2.82426 7.5009C2.82426 7.81076 3.07545 8.06195 3.38532 8.06195H15.9774C16.2769 8.06195 16.5236 7.8267 16.5378 7.52753L16.7247 3.59641C16.7399 3.27646 16.4846 3.00872 16.1642 3.00872H3.38532C3.07545 3.00872 2.82426 3.25992 2.82426 3.56978V7.5009Z"
    fill="#121212" />
</svg>