<svg width="158" height="80" viewBox="0 0 158 80" fill="none" xmlns="http://www.w3.org/2000/svg">
  <mask id="mask0_313_1102" style="mask-type:luminance" maskUnits="userSpaceOnUse" x="18" y="22" width="38" height="37">
    <path d="M55.8811 22.146H18.2446V58.0864H55.8811V22.146Z" fill="white" />
  </mask>
  <g mask="url(#mask0_313_1102)">
    <path fill-rule="evenodd" clip-rule="evenodd"
      d="M40.4271 26.5255C40.4271 26.5256 40.4272 26.5254 40.4271 26.5255L22.4936 40.3437C21.5146 41.0979 21.6252 42.6957 22.6973 43.2866C22.6972 43.2866 22.6974 43.2867 22.6973 43.2866L25.815 45.0039L41.6986 53.7541C43.063 54.5063 44.7023 54.3959 45.9695 53.4666C45.9694 53.4666 45.9696 53.4665 45.9695 53.4666L49.5084 50.8696L50.5273 50.1224C50.5272 50.1225 50.5274 50.1223 50.5273 50.1224C52.1677 48.9183 52.7578 46.6242 51.931 44.6924C51.9241 44.678 51.9175 44.6634 51.9111 44.6487L44.4217 27.635C43.7056 26.0082 41.7899 25.476 40.4271 26.5255ZM38.3393 23.409C41.5175 20.961 45.987 22.2018 47.6576 25.9969L55.1241 42.9586C55.1322 42.9758 55.1401 42.993 55.1478 43.0105C56.7532 46.6566 55.6507 51.0122 52.5481 53.2892L51.5292 54.0365L47.9902 56.6334C45.6399 58.3574 42.597 58.5637 40.0631 57.1672C40.063 57.1671 40.0632 57.1673 40.0631 57.1672L21.0622 46.6999C17.6115 44.7984 17.2535 39.656 20.4056 37.2274L38.3393 23.409Z"
      fill="#1E2435" />
  </g>
  <path
    d="M67.8957 48.7938L67.8934 48.7916C67.7123 48.791 67.562 48.7329 67.447 48.6171C67.3315 48.483 67.2737 48.3354 67.2737 48.1655V31.8872C67.2737 31.7038 67.3315 31.5518 67.447 31.4355C67.5625 31.3192 67.7136 31.2611 67.8957 31.2611H74.6613C76.8158 31.2611 78.5083 31.7619 79.7344 32.7637C80.9605 33.7476 81.5735 35.1518 81.5735 36.972C81.5735 38.157 81.2937 39.1588 80.7295 39.9771C80.2563 40.6635 79.6551 41.2083 78.9257 41.6115C78.6969 41.738 78.5999 42.0263 78.7268 42.2558L81.8978 47.991C81.9467 48.0894 81.9733 48.1834 81.9733 48.2683C81.9733 48.4025 81.9156 48.5277 81.8001 48.644C81.7023 48.7423 81.5824 48.7961 81.4536 48.7961H78.1441C77.8286 48.7961 77.5977 48.72 77.4467 48.5724C77.2955 48.407 77.189 48.2549 77.1224 48.1207L74.4124 42.8528C74.3361 42.7044 74.1839 42.6112 74.0179 42.6112H72.1959C71.9505 42.6112 71.7516 42.8114 71.7516 43.0584V48.1699C71.7516 48.3354 71.685 48.4875 71.5517 48.6216C71.4362 48.7379 71.2852 48.7961 71.103 48.7961H67.8979L67.8957 48.7938ZM71.7516 39.0514H74.6125C75.3899 39.0514 75.9718 38.8591 76.3538 38.4746C76.7537 38.0899 76.9491 37.5712 76.9491 36.9227C76.9491 36.2743 76.758 35.7466 76.3761 35.3441C76.0118 34.9416 75.4209 34.7448 74.608 34.7448H72.1914C71.946 34.7448 71.7471 34.9451 71.7471 35.192V39.047C71.7471 39.0494 71.7492 39.0514 71.7516 39.0514Z"
    fill="#1E2435" />
  <path
    d="M83.4792 48.7915C83.3553 48.7915 83.2391 48.749 83.1305 48.6604C83.1139 48.6468 83.099 48.6314 83.0858 48.6144C83.0009 48.5052 82.955 48.3884 82.955 48.2638C82.955 48.1788 82.9638 48.1073 82.9816 48.0402L88.8281 31.9631C88.8765 31.7798 88.9784 31.6188 89.1252 31.4891C89.2896 31.3371 89.5165 31.2656 89.796 31.2656H93.4787C93.7582 31.2656 93.9762 31.3416 94.1274 31.4891C94.2918 31.6233 94.4026 31.7798 94.4518 31.9631L100.271 48.0402C100.302 48.1073 100.32 48.1833 100.32 48.2638C100.32 48.398 100.262 48.5231 100.147 48.6395C100.049 48.7378 99.9244 48.7915 99.7732 48.7915H96.7129C96.4791 48.7915 96.2962 48.7401 96.1644 48.6373C96.1477 48.6243 96.1327 48.609 96.1195 48.5928C96.0149 48.4688 95.9472 48.3607 95.9173 48.2683L95.0584 46.0024C94.9925 45.8292 94.8272 45.7147 94.6435 45.7147H88.6162C88.4307 45.7147 88.2646 45.8307 88.2004 46.0056L87.3617 48.2683C87.3306 48.3667 87.2551 48.4874 87.1397 48.6171C87.0241 48.7333 86.8242 48.7915 86.5443 48.7915H83.4836H83.4792ZM89.534 41.5099C89.4321 41.8009 89.6466 42.1058 89.9525 42.1058H93.3266C93.6325 42.1058 93.847 41.8009 93.745 41.5099L92.0589 36.6926C91.9191 36.2946 91.36 36.2946 91.2211 36.6926L89.534 41.5099Z"
    fill="#1E2435" />
  <path
    d="M104.962 48.7916C104.78 48.7916 104.629 48.7334 104.513 48.6171C104.398 48.483 104.34 48.3354 104.34 48.1655V35.6392C104.34 35.3923 104.142 35.192 103.896 35.192H99.9112C99.7292 35.192 99.578 35.1339 99.4629 35.0177C99.3468 34.8834 99.2897 34.7359 99.2897 34.566V31.8872C99.2897 31.7038 99.3468 31.5518 99.4629 31.4355C99.578 31.3192 99.7292 31.2611 99.9112 31.2611H113.296C113.478 31.2611 113.629 31.3192 113.744 31.4355C113.86 31.5518 113.918 31.7038 113.918 31.8872V34.566C113.918 34.7314 113.86 34.8834 113.744 35.0177C113.629 35.1339 113.478 35.192 113.296 35.192H109.311C109.065 35.192 108.867 35.3923 108.867 35.6392V48.1655C108.867 48.3309 108.809 48.483 108.694 48.6171C108.578 48.7334 108.427 48.7916 108.245 48.7916H104.962Z"
    fill="#1E2435" />
  <path
    d="M116.801 48.7916C116.619 48.7916 116.468 48.7334 116.353 48.6171C116.236 48.483 116.179 48.3354 116.179 48.1655V31.8872C116.179 31.7038 116.236 31.5518 116.353 31.4355C116.468 31.3192 116.619 31.2611 116.801 31.2611H120.133C120.315 31.2611 120.466 31.3192 120.581 31.4355C120.715 31.5518 120.782 31.7038 120.782 31.8872V48.1655C120.782 48.3309 120.715 48.483 120.581 48.6171C120.466 48.7334 120.315 48.7916 120.133 48.7916H116.801Z"
    fill="#1E2435" />
  <path
    d="M131.358 49.0419C129.835 49.0419 128.506 48.7916 127.378 48.2906C126.25 47.7898 125.37 47.0385 124.739 46.0368C124.108 45.0172 123.762 43.7516 123.695 42.231C123.677 41.511 123.669 40.7955 123.669 40.0755C123.669 39.3555 123.677 38.6131 123.695 37.8976C123.762 36.395 124.108 35.1339 124.739 34.1143C125.388 33.0812 126.272 32.303 127.4 31.7844C128.546 31.2656 129.861 31.0062 131.354 31.0062C132.847 31.0062 134.184 31.2656 135.307 31.7844C136.436 32.303 137.324 33.0768 137.968 34.1143C138.617 35.1339 138.964 36.395 139.013 37.8976C139.044 38.6176 139.061 39.3421 139.061 40.0755C139.061 40.8089 139.044 41.511 139.013 42.231C138.964 43.7516 138.613 45.0172 137.968 46.0368C137.338 47.0385 136.458 47.7898 135.33 48.2906C134.201 48.7916 132.873 49.0419 131.349 49.0419H131.358ZM131.358 45.4375C132.238 45.4375 132.949 45.1692 133.5 44.637C134.063 44.1048 134.361 43.2506 134.396 42.0834C134.428 41.3501 134.446 40.6569 134.446 40.004C134.446 39.351 134.428 38.6758 134.396 37.9736C134.366 37.191 134.215 36.556 133.948 36.0686C133.699 35.5677 133.353 35.201 132.905 34.9684C132.455 34.7359 131.945 34.6196 131.363 34.6196C130.781 34.6196 130.292 34.7359 129.844 34.9684C129.395 35.201 129.039 35.5677 128.773 36.0686C128.506 36.5516 128.36 37.1866 128.324 37.9736C128.307 38.6758 128.297 39.351 128.297 40.004C128.297 40.6569 128.307 41.3501 128.324 42.0834C128.373 43.2506 128.671 44.1048 129.221 44.637C129.785 45.1692 130.501 45.4375 131.363 45.4375H131.358Z"
    fill="#1E2435" />
</svg>